<svg id="Layer_1" data-name="Layer 1" xmlns="http://www.w3.org/2000/svg" viewBox="0 0 154.2 67.84"><defs><style>.cls-1{fill:#0b6a9e;}.cls-2{fill:#2d2d2d;}</style></defs><title>nznog</title><path class="cls-1" d="M40,44.14l1.43-20.2h5.72c5,8.66,7,11.87,8.06,14.29h.06c-.05-2.12.25-6,.49-9.3l.35-5h4.43l-1.42,20.2H53.75c-1.66-3-7.3-13.13-8.32-15.43h-.06c0,2.49-.24,5.44-.49,9l-.45,6.4Z" transform="translate(0.01 -0.12)"/><path class="cls-1" d="M63.25,40.61,75.67,27.75H64.19l.27-3.81H82l-.27,3.83L69.21,40.33H80.85l-.28,3.81H63Z" transform="translate(0.01 -0.12)"/><path class="cls-2" d="M84.78,44.14l1.43-20.2h5.72c5,8.66,7,11.87,8.06,14.29h.06c0-2.12.25-6,.49-9.3l.35-5h4.43l-1.42,20.2H98.53c-1.66-3-7.3-13.13-8.32-15.43h-.06c0,2.49-.24,5.44-.49,9l-.45,6.4Z" transform="translate(0.01 -0.12)"/><path class="cls-2" d="M130.37,33.45c0,5.85-3.81,11.12-11.43,11.12-6.54,0-10.27-4.35-10.27-10s4-11,11.33-11C126.65,23.51,130.37,28,130.37,33.45Zm-16.6,1c0,3.72,1.83,6.38,5.54,6.38,4.24,0,6-3.75,6-7.35,0-3.3-1.59-6.17-5.51-6.17C115.67,27.28,113.77,30.86,113.77,34.42Z" transform="translate(0.01 -0.12)"/><path class="cls-2" d="M153.15,44.14l-3.77,0,.16-2c-1.27,1.49-3,2.49-6.71,2.49-6.3,0-9.59-4.39-9.59-9.9,0-6,4.1-11.16,11.43-11.16,6.32,0,9.05,3.42,9.52,6.47h-4.91c-.33-1.09-1.44-2.79-4.74-2.79-4.11,0-6.2,3.18-6.2,7.21,0,3.84,1.76,6.46,5.58,6.46s5-2.11,5.17-4.27v-.26h-5l.29-3.74H154Z" transform="translate(0.01 -0.12)"/><path class="cls-2" d="M40.47,54.05,40.76,50h.53c.76,1.14,2.11,3.08,2.34,3.5h0c0-.55,0-1.16.1-1.82L43.86,50h.43L44,54.05h-.51c-.59-.87-2.08-3.12-2.36-3.59h0c0,.53,0,1.11-.1,1.83l-.12,1.76Z" transform="translate(0.01 -0.12)"/><path class="cls-2" d="M45.32,52.71a.43.43,0,0,0,0,0,1,1,0,0,0,1.94.5h.43a1.4,1.4,0,0,1-1.4.87,1.33,1.33,0,0,1-1.39-1.43,1.51,1.51,0,0,1,1.51-1.6,1.29,1.29,0,0,1,1.37,1.4,1.55,1.55,0,0,1,0,.21Zm2-.33v0a.87.87,0,0,0-1-.88,1,1,0,0,0-1,.92Z" transform="translate(0.01 -0.12)"/><path class="cls-2" d="M48.69,51.18c.43,1.61.54,2.16.6,2.45h0c.1-.28.25-.65,1-2.45h.42c.5,1.71.62,2.19.66,2.42h0c.09-.28.34-.92,1-2.42h.43l-1.21,2.87h-.43c-.28-1-.59-2-.67-2.37h0c-.1.26-.47,1.17-1,2.37H49l-.76-2.87Z" transform="translate(0.01 -0.12)"/><path class="cls-2" d="M54.66,53.72l3.09-3.34H55L55,50h3.37l0,.34-3.08,3.34h3l-.1.38H54.64Z" transform="translate(0.01 -0.12)"/><path class="cls-2" d="M59.2,52.71a.07.07,0,0,0,0,0,1,1,0,0,0,1,1,1,1,0,0,0,.94-.51h.43a1.4,1.4,0,0,1-1.4.87,1.33,1.33,0,0,1-1.39-1.43,1.51,1.51,0,0,1,1.51-1.6,1.29,1.29,0,0,1,1.37,1.4,1.55,1.55,0,0,1,0,.21Zm2-.33v0a.86.86,0,0,0-1-.88,1,1,0,0,0-1,.92Z" transform="translate(0.01 -0.12)"/><path class="cls-2" d="M64.8,53.31c0,.32,0,.65,0,.74h-.41a3.42,3.42,0,0,1,0-.45,1.14,1.14,0,0,1-1.13.53c-.79,0-1.07-.48-1.07-.88,0-.79.8-1,1.5-1h.79v-.15c0-.34-.1-.68-.78-.68s-.76.24-.83.55h-.43c.06-.41.34-.9,1.28-.9s1.22.5,1.18,1Zm-.37-.71h-.77c-.66,0-1.07.16-1.07.61s.23.55.72.55a1,1,0,0,0,1.11-1Z" transform="translate(0.01 -0.12)"/><path class="cls-2" d="M65.71,54.05l.3-4.3h.42l-.3,4.3Z" transform="translate(0.01 -0.12)"/><path class="cls-2" d="M69.58,53.31c0,.32,0,.65,0,.74h-.41a3.42,3.42,0,0,1,0-.45,1.14,1.14,0,0,1-1.13.53c-.79,0-1.07-.48-1.07-.88,0-.79.79-1,1.5-1h.78v-.15c0-.34-.1-.68-.78-.68s-.76.24-.84.55h-.42c.06-.41.34-.9,1.27-.9s1.23.5,1.19,1Zm-.38-.71h-.76c-.66,0-1.07.16-1.07.61s.23.55.72.55a1,1,0,0,0,1.11-1Z" transform="translate(0.01 -0.12)"/><path class="cls-2" d="M70.65,51.91c0-.24,0-.52,0-.73h.41c0,.13,0,.37,0,.58a1.15,1.15,0,0,1,1.09-.66c.65,0,1.09.39,1,1.23l-.12,1.72h-.43l.12-1.66c0-.52-.13-.91-.71-.91s-1,.52-1,1.23l-.09,1.34H70.5Z" transform="translate(0.01 -0.12)"/><path class="cls-2" d="M77,49.75l-.24,3.47-.06.83h-.4a3.74,3.74,0,0,1,0-.46,1.09,1.09,0,0,1-1.08.54,1.3,1.3,0,0,1-1.33-1.42,1.55,1.55,0,0,1,1.51-1.61,1,1,0,0,1,1,.52l.13-1.87Zm-2.66,2.94a1,1,0,0,0,1,1.07c.74,0,1-.47,1.09-1.12s-.2-1.17-1-1.17A1.12,1.12,0,0,0,74.35,52.69Z" transform="translate(0.01 -0.12)"/><path class="cls-2" d="M79.51,54.05,79.79,50h.54c.76,1.14,2.11,3.08,2.33,3.5h0c0-.55,0-1.16.1-1.82L82.89,50h.43L83,54.05h-.51c-.6-.87-2.08-3.12-2.36-3.59h0c0,.53,0,1.11-.1,1.83l-.12,1.76Z" transform="translate(0.01 -0.12)"/><path class="cls-2" d="M84.36,52.71a.07.07,0,0,0,0,0,1,1,0,0,0,1,1,1,1,0,0,0,.94-.51h.43a1.4,1.4,0,0,1-1.4.87,1.33,1.33,0,0,1-1.39-1.43,1.5,1.5,0,0,1,1.51-1.6,1.29,1.29,0,0,1,1.37,1.4,1.55,1.55,0,0,1,0,.21Zm2-.33v0a.86.86,0,0,0-1-.88,1,1,0,0,0-1,.92Z" transform="translate(0.01 -0.12)"/><path class="cls-2" d="M87.22,51.18h.58l.07-1h.42l-.06,1H89l0,.35H88.2l-.12,1.69c0,.35.06.51.38.51a1.58,1.58,0,0,0,.32,0l0,.33a1.42,1.42,0,0,1-.42,0c-.56,0-.72-.26-.69-.82l.13-1.73H87.2Z" transform="translate(0.01 -0.12)"/><path class="cls-2" d="M89.81,51.18c.43,1.61.54,2.16.6,2.45h0c.1-.28.25-.65,1-2.45h.41c.5,1.71.63,2.19.67,2.42h0c.09-.28.34-.92,1-2.42h.43l-1.22,2.87h-.42c-.28-1-.59-2-.67-2.37h0c-.1.26-.47,1.17-1,2.37h-.46l-.76-2.87Z" transform="translate(0.01 -0.12)"/><path class="cls-2" d="M97.16,52.56a1.48,1.48,0,0,1-1.55,1.57,1.37,1.37,0,0,1-1.42-1.45,1.51,1.51,0,0,1,1.55-1.58A1.38,1.38,0,0,1,97.16,52.56Zm-2.54.12a1,1,0,0,0,1,1.09,1.08,1.08,0,0,0,1.08-1.2,1,1,0,0,0-1-1.1A1.1,1.1,0,0,0,94.62,52.68Z" transform="translate(0.01 -0.12)"/><path class="cls-2" d="M97.94,52c0-.26,0-.54,0-.8h.41c0,.08,0,.39,0,.68a1.25,1.25,0,0,1,1.18-.75l0,.43a1.21,1.21,0,0,0-1.22,1.28l-.08,1.23H97.8Z" transform="translate(0.01 -0.12)"/><path class="cls-2" d="M100.54,52.59c.3-.26,1.27-1,1.76-1.41h.58c-.18.13-1.31,1-1.45,1.13l1.37,1.74h-.54l-1.16-1.5-.58.43-.08,1.07H100l.3-4.3h.42Z" transform="translate(0.01 -0.12)"/><path class="cls-2" d="M109.13,51.92A2.09,2.09,0,0,1,107,54.14a1.93,1.93,0,0,1-2-2,2.14,2.14,0,0,1,2.18-2.21A1.94,1.94,0,0,1,109.13,51.92Zm-3.69.17A1.53,1.53,0,0,0,107,53.75a1.66,1.66,0,0,0,1.67-1.82,1.53,1.53,0,0,0-1.56-1.64A1.68,1.68,0,0,0,105.44,52.09Z" transform="translate(0.01 -0.12)"/><path class="cls-2" d="M110.27,53.57l-.13,1.76h-.42l.24-3.39c0-.29,0-.54.05-.76h.41c0,.08,0,.29,0,.54a1.23,1.23,0,0,1,1.15-.62,1.28,1.28,0,0,1,1.26,1.39,1.53,1.53,0,0,1-1.49,1.64A1.07,1.07,0,0,1,110.27,53.57Zm2.1-1.06a.93.93,0,0,0-.94-1,1.09,1.09,0,0,0-1.1,1.14.94.94,0,0,0,1,1.14A1.12,1.12,0,0,0,112.37,52.51Z" transform="translate(0.01 -0.12)"/><path class="cls-2" d="M113.75,52.71v0a1,1,0,0,0,1.93.5h.43a1.38,1.38,0,0,1-1.4.87,1.33,1.33,0,0,1-1.39-1.43,1.51,1.51,0,0,1,1.52-1.6,1.29,1.29,0,0,1,1.37,1.4.78.78,0,0,1,0,.21Zm2-.33v0a.86.86,0,0,0-1-.88,1,1,0,0,0-1,.92Z" transform="translate(0.01 -0.12)"/><path class="cls-2" d="M117,52c0-.26.05-.54.06-.8h.4a4.76,4.76,0,0,1,0,.68,1.27,1.27,0,0,1,1.19-.75l0,.43a1.21,1.21,0,0,0-1.21,1.28l-.08,1.23h-.43Z" transform="translate(0.01 -0.12)"/><path class="cls-2" d="M121.41,53.31c0,.32,0,.65,0,.74H121a3.42,3.42,0,0,1,0-.45,1.14,1.14,0,0,1-1.13.53c-.79,0-1.07-.48-1.07-.88,0-.79.79-1,1.5-1h.78v-.15c0-.34-.1-.68-.78-.68s-.76.24-.83.55H119c.06-.41.34-.9,1.28-.9s1.22.5,1.18,1ZM121,52.6h-.77c-.66,0-1.07.16-1.07.61s.23.55.72.55a1,1,0,0,0,1.11-1Z" transform="translate(0.01 -0.12)"/><path class="cls-2" d="M122,51.18h.58l.07-1h.43l-.07,1h.76l0,.35H123l-.12,1.69c0,.35.06.51.38.51a1.58,1.58,0,0,0,.32,0l0,.33a1.38,1.38,0,0,1-.42,0c-.56,0-.72-.26-.68-.82l.12-1.73H122Z" transform="translate(0.01 -0.12)"/><path class="cls-2" d="M127,52.56a1.48,1.48,0,0,1-1.55,1.57A1.37,1.37,0,0,1,124,52.68a1.51,1.51,0,0,1,1.55-1.58A1.38,1.38,0,0,1,127,52.56Zm-2.54.12a1,1,0,0,0,1,1.09,1.08,1.08,0,0,0,1.08-1.2,1,1,0,0,0-1-1.1A1.1,1.1,0,0,0,124.47,52.68Z" transform="translate(0.01 -0.12)"/><path class="cls-2" d="M127.79,52c0-.26,0-.54,0-.8h.41c0,.08,0,.39,0,.68a1.25,1.25,0,0,1,1.18-.75l0,.43a1.21,1.21,0,0,0-1.22,1.28l-.08,1.23h-.43Z" transform="translate(0.01 -0.12)"/><path class="cls-2" d="M130.08,53.18c.1.41.44.61,1,.61s.81-.21.81-.51-.16-.45-.88-.55c-.92-.14-1.12-.44-1.12-.8s.33-.83,1.17-.83c1,0,1.23.56,1.25.87h-.43c0-.21-.18-.53-.86-.53s-.7.24-.7.45.17.37.81.47c1,.16,1.2.45,1.2.88s-.42.89-1.29.89-1.28-.35-1.36-1Z" transform="translate(0.01 -0.12)"/><path class="cls-2" d="M138.47,54.05h-.35a3.63,3.63,0,0,1,0-.65,1.55,1.55,0,0,1-1.52.74,1.84,1.84,0,0,1-1.93-2,2.13,2.13,0,0,1,2.2-2.23,1.62,1.62,0,0,1,1.8,1.22h-.47a1.26,1.26,0,0,0-1.35-.83,1.67,1.67,0,0,0-1.7,1.82,1.48,1.48,0,0,0,1.52,1.64,1.33,1.33,0,0,0,1.48-1.37v-.12h-1.41l0-.4h1.85Z" transform="translate(0.01 -0.12)"/><path class="cls-2" d="M139.58,52c0-.26,0-.54,0-.8H140c0,.08,0,.39,0,.68a1.25,1.25,0,0,1,1.18-.75l0,.43a1.21,1.21,0,0,0-1.22,1.28l-.08,1.23h-.43Z" transform="translate(0.01 -0.12)"/><path class="cls-2" d="M144.4,52.56a1.48,1.48,0,0,1-1.54,1.57,1.38,1.38,0,0,1-1.43-1.45A1.51,1.51,0,0,1,143,51.1,1.38,1.38,0,0,1,144.4,52.56Zm-2.53.12a1,1,0,0,0,1,1.09,1.08,1.08,0,0,0,1.09-1.2,1,1,0,0,0-1-1.1A1.1,1.1,0,0,0,141.87,52.68Z" transform="translate(0.01 -0.12)"/><path class="cls-2" d="M147.62,53.24c0,.27,0,.55-.05.81h-.41a5.16,5.16,0,0,1,0-.53,1,1,0,0,1-1.07.61c-.62,0-1.06-.34-1-1.17l.12-1.78h.43l-.12,1.69c0,.45.1.89.66.89s1-.41,1.06-1.31l.09-1.27h.42Z" transform="translate(0.01 -0.12)"/><path class="cls-2" d="M149,53.57l-.13,1.76h-.42l.24-3.39c0-.29,0-.54,0-.76h.41a3.88,3.88,0,0,1,0,.54,1.26,1.26,0,0,1,1.15-.62,1.28,1.28,0,0,1,1.27,1.39A1.53,1.53,0,0,1,150,54.13,1.07,1.07,0,0,1,149,53.57Zm2.1-1.06a.93.93,0,0,0-.94-1,1.09,1.09,0,0,0-1.1,1.14.94.94,0,0,0,1,1.14A1.12,1.12,0,0,0,151.09,52.51Z" transform="translate(0.01 -0.12)"/><path class="cls-1" d="M6.07.12S18.29,22.4,18.36,25C18.42,27.13,12,42.54,12,42.54S27.3,26.79,27.18,25.2C26.87,21.27,6.07.12,6.07.12Z" transform="translate(0.01 -0.12)"/><path class="cls-1" d="M12,68S7.27,44.58,7.2,42c-.06-2.19,6.45-17.8,6.45-17.8S-.14,40.93,0,42.54C.3,46.52,12,68,12,68Z" transform="translate(0.01 -0.12)"/></svg>
