<svg id="Layer_1" data-name="Layer 1" xmlns="http://www.w3.org/2000/svg" viewBox="0 0 639.41 281.29"><defs><style>.cls-1{fill:#0b6a9e;}.cls-2{fill:#2d2d2d;}</style></defs><title>nog</title><path class="cls-1" d="M166.78,183.58l5.92-83.73h23.71c20.67,35.9,28.87,49.21,33.44,59.24h.23c-.18-8.79,1-24.78,2-38.55l1.48-20.69H252L246,183.58H223.8c-6.9-12.48-30.28-54.43-34.51-64h-.24c0,10.34-1,22.56-2,37.45l-1.86,26.53Z" transform="translate(-0.87 -1.07)"/><path class="cls-1" d="M263.16,169l51.51-53.32H267.08l1.13-15.8h72.88L340,115.72l-52.09,52.07h48.26L335,183.58h-72.9Z" transform="translate(-0.87 -1.07)"/><path class="cls-2" d="M352.46,183.58l5.91-83.73h23.71c20.68,35.9,28.88,49.21,33.44,59.24h.24c-.19-8.79,1-24.78,2-38.55l1.47-20.69h18.37l-5.91,83.73H409.48c-6.9-12.48-30.28-54.43-34.52-64h-.24c0,10.34-1,22.56-2,37.45l-1.86,26.53Z" transform="translate(-0.87 -1.07)"/><path class="cls-2" d="M541.51,139.29c0,24.24-15.82,46.08-47.39,46.08-27.15,0-42.62-18-42.62-41.54,0-23.29,16.63-45.76,47-45.76C526.08,98.07,541.51,116.76,541.51,139.29Zm-68.85,4c0,15.44,7.61,26.44,23,26.44,17.61,0,24.76-15.55,24.76-30.44,0-13.72-6.6-25.58-22.84-25.58C480.55,113.71,472.66,128.53,472.66,143.29Z" transform="translate(-0.87 -1.07)"/><path class="cls-2" d="M636,183.58l-15.63-.1L621,175c-5.28,6.18-12.39,10.33-27.81,10.33-26.13,0-39.77-18.17-39.77-41.06,0-25,17-46.24,47.4-46.24,26.2,0,37.52,14.16,39.46,26.8H619.92c-1.37-4.49-6-11.55-19.68-11.55-17,0-25.71,13.18-25.71,29.9,0,15.9,7.31,26.79,23.16,26.79,15.21,0,20.88-8.76,21.43-17.71l.06-1.07H598.57l1.17-15.54h39.73Z" transform="translate(-0.87 -1.07)"/><path class="cls-2" d="M168.72,224.71l1.19-16.88h2.23c3.15,4.72,8.77,12.8,9.69,14.56h0c0-2.32.23-4.86.42-7.59l.49-7h1.78l-1.19,16.88h-2.11c-2.47-3.63-8.65-13-9.78-14.92h-.05c0,2.2-.21,4.6-.42,7.6l-.51,7.32Z" transform="translate(-0.87 -1.07)"/><path class="cls-2" d="M188.83,219.14a1,1,0,0,0,0,.18,4.3,4.3,0,0,0,8,2.09h1.79a5.74,5.74,0,0,1-5.81,3.63c-3.83,0-5.78-2.75-5.78-5.95,0-3.67,2.45-6.63,6.29-6.63,4.19,0,5.7,3,5.7,5.8a5.5,5.5,0,0,1-.06.88Zm8.37-1.37s0-.08,0-.16a3.6,3.6,0,0,0-4-3.69,4.16,4.16,0,0,0-4.32,3.85Z" transform="translate(-0.87 -1.07)"/><path class="cls-2" d="M202.82,212.79c1.77,6.68,2.25,8.94,2.48,10.17h0c.41-1.19,1-2.71,4.2-10.17h1.7c2.08,7.09,2.59,9.08,2.75,10h0c.37-1.16,1.41-3.81,4-10h1.79l-5.06,11.92h-1.77c-1.16-4-2.45-8.54-2.76-9.87h0c-.39,1.11-1.93,4.86-4.11,9.87h-1.88L201,212.79Z" transform="translate(-0.87 -1.07)"/><path class="cls-2" d="M227.56,223.34l12.83-13.89H228.91l.11-1.62h14l-.1,1.43L230.16,223.1h12.5l-.42,1.61H227.47Z" transform="translate(-0.87 -1.07)"/><path class="cls-2" d="M246.38,219.14a1,1,0,0,0,0,.18,4.3,4.3,0,0,0,8,2.09h1.79a5.74,5.74,0,0,1-5.81,3.63c-3.83,0-5.78-2.75-5.78-5.95,0-3.67,2.45-6.63,6.3-6.63,4.18,0,5.69,3,5.69,5.8a5.5,5.5,0,0,1-.06.88Zm8.37-1.37s0-.08,0-.16a3.6,3.6,0,0,0-3.95-3.69,4.16,4.16,0,0,0-4.32,3.85Z" transform="translate(-0.87 -1.07)"/><path class="cls-2" d="M269.64,221.61c-.13,1.33-.17,2.73-.16,3.1h-1.71a12,12,0,0,1,0-1.89c-.7,1.32-2.05,2.22-4.68,2.22-3.29,0-4.45-2-4.45-3.68,0-3.25,3.3-3.93,6.23-4,1.38,0,2.67,0,3.26,0l0-.61c.11-1.43-.43-2.83-3.24-2.83-2.41,0-3.15,1-3.47,2.29h-1.77c.24-1.69,1.4-3.72,5.3-3.72,4.05,0,5.09,2,4.92,4.17Zm-1.56-2.93c-.78,0-1.67,0-3.18,0-2.73.07-4.43.65-4.43,2.53,0,1.29,1,2.3,3,2.3,3.39,0,4.38-2,4.61-4.34Z" transform="translate(-0.87 -1.07)"/><path class="cls-2" d="M273.37,224.71l1.26-17.87h1.76l-1.26,17.87Z" transform="translate(-0.87 -1.07)"/><path class="cls-2" d="M289.45,221.61c-.13,1.33-.17,2.73-.17,3.1h-1.7a12,12,0,0,1,0-1.89c-.7,1.32-2.05,2.22-4.68,2.22-3.29,0-4.45-2-4.45-3.68,0-3.25,3.3-3.93,6.22-4,1.39,0,2.68,0,3.27,0l0-.61c.1-1.43-.43-2.83-3.24-2.83-2.41,0-3.15,1-3.47,2.29h-1.77c.24-1.69,1.4-3.72,5.3-3.72,4.05,0,5.09,2,4.91,4.17Zm-1.56-2.93c-.78,0-1.67,0-3.18,0-2.73.07-4.43.65-4.43,2.53,0,1.29,1,2.3,3,2.3,3.39,0,4.38-2,4.61-4.34Z" transform="translate(-0.87 -1.07)"/><path class="cls-2" d="M293.87,215.79c.07-1,.15-2.13.19-3h1.7c0,.54,0,1.53-.09,2.39a4.69,4.69,0,0,1,4.5-2.72c2.73,0,4.56,1.6,4.29,5.11l-.5,7.14H302.2l.49-6.93c.15-2.13-.55-3.76-2.95-3.76-2.7,0-4.15,2.17-4.36,5.12l-.38,5.57h-1.76Z" transform="translate(-0.87 -1.07)"/><path class="cls-2" d="M320.27,206.84l-1,14.4c-.08,1.15-.16,2.32-.22,3.47h-1.68a16,16,0,0,1,0-1.91c-.68,1.13-1.79,2.24-4.49,2.24-3.41,0-5.51-2.47-5.51-5.91a6.38,6.38,0,0,1,6.28-6.67c2.91,0,4,1.43,4.28,2.13l.57-7.75Zm-11,12.22c0,2.32,1.34,4.44,4,4.44,3,0,4.36-2,4.52-4.67.24-3-.85-4.84-4-4.84C310.78,214,309.22,216.49,309.22,219.06Z" transform="translate(-0.87 -1.07)"/><path class="cls-2" d="M330.6,224.71l1.19-16.88H334c3.15,4.72,8.77,12.8,9.7,14.56h0c0-2.32.23-4.86.42-7.59l.49-7h1.79l-1.19,16.88h-2.11c-2.48-3.63-8.66-13-9.79-14.92h0c0,2.2-.21,4.6-.43,7.6l-.51,7.32Z" transform="translate(-0.87 -1.07)"/><path class="cls-2" d="M350.7,219.14c0,.05,0,.11,0,.18a4.31,4.31,0,0,0,8,2.09h1.78c-.72,1.77-2.33,3.63-5.81,3.63-3.83,0-5.77-2.75-5.77-5.95,0-3.67,2.45-6.63,6.29-6.63,4.18,0,5.7,3,5.7,5.8a5.57,5.57,0,0,1-.07.88Zm8.38-1.37v-.16a3.6,3.6,0,0,0-3.95-3.69,4.17,4.17,0,0,0-4.32,3.85Z" transform="translate(-0.87 -1.07)"/><path class="cls-2" d="M362.59,212.79H365l.29-3.95H367l-.28,3.95h3.16l-.1,1.45h-3.17l-.49,7c-.11,1.47.23,2.12,1.57,2.12a6.12,6.12,0,0,0,1.33-.13l-.1,1.38a5.07,5.07,0,0,1-1.75.21c-2.3,0-3-1.1-2.83-3.4l.51-7.18h-2.41Z" transform="translate(-0.87 -1.07)"/><path class="cls-2" d="M373.32,212.79c1.77,6.68,2.25,8.94,2.47,10.17h0c.4-1.19,1-2.71,4.2-10.17h1.7c2.08,7.09,2.59,9.08,2.75,10h0c.38-1.16,1.42-3.81,4-10h1.78l-5.05,11.92h-1.77c-1.16-4-2.46-8.54-2.76-9.87h0c-.39,1.11-1.93,4.86-4.12,9.87h-1.87l-3.16-11.92Z" transform="translate(-0.87 -1.07)"/><path class="cls-2" d="M403.82,218.5c0,3.31-2.06,6.54-6.43,6.54a5.72,5.72,0,0,1-5.91-6,6.28,6.28,0,0,1,6.43-6.56A5.75,5.75,0,0,1,403.82,218.5Zm-10.53.49a4.22,4.22,0,0,0,4.2,4.53c3.09,0,4.51-2.39,4.51-5s-1.48-4.58-4.23-4.58C394.85,214,393.29,216.33,393.29,219Z" transform="translate(-0.87 -1.07)"/><path class="cls-2" d="M407,216.12c.08-1.11.16-2.26.21-3.33h1.7c0,.33,0,1.6-.13,2.79a5.21,5.21,0,0,1,4.91-3.09l-.14,1.76c-2.78,0-4.81,1.89-5,5.34l-.36,5.12h-1.76Z" transform="translate(-0.87 -1.07)"/><path class="cls-2" d="M417.82,218.63c1.25-1.06,5.27-4.22,7.31-5.84h2.38c-.73.51-5.43,4.26-6,4.68l5.68,7.24H425l-4.81-6.24-2.44,1.8-.32,4.44h-1.76l1.26-17.87h1.76Z" transform="translate(-0.87 -1.07)"/><path class="cls-2" d="M453.48,215.84c0,4.91-3.17,9.22-9,9.22-5.12,0-8.33-3.65-8.33-8.43a8.86,8.86,0,0,1,9.06-9.15A8,8,0,0,1,453.48,215.84Zm-15.37.7c0,3.68,2.24,6.9,6.46,6.9,4.47,0,6.92-3.4,6.92-7.55,0-3.69-2.34-6.79-6.48-6.79S438.11,212.49,438.11,216.54Z" transform="translate(-0.87 -1.07)"/><path class="cls-2" d="M458.17,222.68l-.53,7.31h-1.76l1-14.06c.12-1.21.18-2.23.2-3.14h1.71a21.63,21.63,0,0,1-.09,2.22,5.19,5.19,0,0,1,4.78-2.55c3.19,0,5.25,2.5,5.25,5.77,0,3.76-2.51,6.81-6.18,6.81C459.87,225,458.75,223.79,458.17,222.68Zm8.72-4.38c0-2.22-1.21-4.29-3.92-4.29-2.86,0-4.4,2.08-4.57,4.75s1.18,4.74,4,4.74C465.39,223.5,466.89,220.94,466.89,218.3Z" transform="translate(-0.87 -1.07)"/><path class="cls-2" d="M472.6,219.14c0,.05,0,.11,0,.18a4.31,4.31,0,0,0,8,2.09h1.78c-.72,1.77-2.33,3.63-5.81,3.63-3.82,0-5.77-2.75-5.77-5.95,0-3.67,2.45-6.63,6.29-6.63,4.18,0,5.7,3,5.7,5.8a5.57,5.57,0,0,1-.07.88Zm8.38-1.37v-.16a3.6,3.6,0,0,0-4-3.69,4.17,4.17,0,0,0-4.32,3.85Z" transform="translate(-0.87 -1.07)"/><path class="cls-2" d="M486,216.12c.08-1.11.17-2.26.22-3.33H488c0,.33,0,1.6-.12,2.79a5.21,5.21,0,0,1,4.91-3.09l-.14,1.76c-2.78,0-4.81,1.89-5,5.34l-.35,5.12h-1.76Z" transform="translate(-0.87 -1.07)"/><path class="cls-2" d="M504.37,221.61c-.13,1.33-.17,2.73-.16,3.1H502.5a12,12,0,0,1,0-1.89c-.7,1.32-2,2.22-4.68,2.22-3.29,0-4.45-2-4.45-3.68,0-3.25,3.3-3.93,6.23-4,1.38,0,2.67,0,3.26,0l0-.61c.1-1.43-.43-2.83-3.24-2.83-2.41,0-3.15,1-3.47,2.29h-1.77c.24-1.69,1.4-3.72,5.3-3.72s5.09,2,4.92,4.17Zm-1.56-2.93c-.78,0-1.67,0-3.18,0-2.73.07-4.43.65-4.43,2.53,0,1.29,1,2.3,3,2.3,3.39,0,4.38-2,4.61-4.34Z" transform="translate(-0.87 -1.07)"/><path class="cls-2" d="M506.86,212.79h2.4l.29-3.95h1.76l-.28,3.95h3.16l-.11,1.45h-3.16l-.49,7c-.11,1.47.23,2.12,1.57,2.12a6.19,6.19,0,0,0,1.33-.13l-.1,1.38a5.1,5.1,0,0,1-1.75.21c-2.3,0-3-1.1-2.83-3.4l.51-7.18h-2.41Z" transform="translate(-0.87 -1.07)"/><path class="cls-2" d="M527.59,218.5c0,3.31-2.06,6.54-6.43,6.54a5.71,5.71,0,0,1-5.9-6,6.28,6.28,0,0,1,6.43-6.56A5.74,5.74,0,0,1,527.59,218.5Zm-10.53.49a4.23,4.23,0,0,0,4.21,4.53c3.09,0,4.51-2.39,4.51-5s-1.49-4.58-4.23-4.58C518.62,214,517.06,216.33,517.06,219Z" transform="translate(-0.87 -1.07)"/><path class="cls-2" d="M530.8,216.12c.08-1.11.17-2.26.22-3.33h1.69c0,.33,0,1.6-.12,2.79a5.21,5.21,0,0,1,4.9-3.09l-.13,1.76c-2.78,0-4.81,1.89-5,5.34l-.35,5.12H530.2Z" transform="translate(-0.87 -1.07)"/><path class="cls-2" d="M540.3,221.06c.4,1.74,1.84,2.56,4,2.56s3.38-.87,3.38-2.14c0-1.1-.66-1.84-3.66-2.28-3.83-.57-4.66-1.82-4.66-3.32,0-1.66,1.4-3.42,4.85-3.42,4.19,0,5.11,2.33,5.19,3.58h-1.78c-.18-.85-.75-2.17-3.55-2.17-2.22,0-2.92,1-2.92,1.86s.7,1.54,3.38,2c4,.62,5,1.83,5,3.63,0,2.15-1.73,3.71-5.34,3.71-3.4,0-5.34-1.45-5.66-4Z" transform="translate(-0.87 -1.07)"/><path class="cls-2" d="M575.12,224.71h-1.46a16.89,16.89,0,0,1,0-2.73c-1.16,2-3,3.08-6.3,3.08-5,0-8-3.31-8-8.32s3.35-9.26,9.12-9.26c4.76,0,6.91,2.4,7.48,5.07h-1.94c-.63-1.91-2.27-3.47-5.62-3.47-4.55,0-7.06,3.42-7.06,7.55,0,3.9,2.19,6.82,6.3,6.82,3.93,0,5.92-2.13,6.16-5.71l0-.5H568l.12-1.63h7.65Z" transform="translate(-0.87 -1.07)"/><path class="cls-2" d="M579.68,216.12c.08-1.11.17-2.26.22-3.33h1.69c0,.33,0,1.6-.13,2.79a5.23,5.23,0,0,1,4.91-3.09l-.13,1.76c-2.79,0-4.81,1.89-5,5.34l-.35,5.12h-1.77Z" transform="translate(-0.87 -1.07)"/><path class="cls-2" d="M599.71,218.5c0,3.31-2.05,6.54-6.42,6.54a5.71,5.71,0,0,1-5.91-6,6.28,6.28,0,0,1,6.43-6.56A5.74,5.74,0,0,1,599.71,218.5Zm-10.53.49a4.23,4.23,0,0,0,4.21,4.53c3.09,0,4.51-2.39,4.51-5s-1.48-4.58-4.23-4.58C590.74,214,589.18,216.33,589.18,219Z" transform="translate(-0.87 -1.07)"/><path class="cls-2" d="M613,221.33c-.07,1.13-.15,2.27-.19,3.38h-1.71c0-.34,0-1.33.07-2.22-.69,1.45-1.78,2.55-4.47,2.55s-4.4-1.43-4.16-4.89l.51-7.36h1.77l-.49,7c-.13,1.88.4,3.69,2.76,3.69,2.77,0,4.12-1.7,4.4-5.44l.36-5.25h1.76Z" transform="translate(-0.87 -1.07)"/><path class="cls-2" d="M618.72,222.68l-.53,7.31h-1.76l1-14.06c.12-1.21.18-2.23.2-3.14h1.71c0,.34,0,1.19-.09,2.22a5.19,5.19,0,0,1,4.78-2.55c3.19,0,5.25,2.5,5.25,5.77,0,3.76-2.52,6.81-6.18,6.81C620.42,225,619.3,223.79,618.72,222.68Zm8.72-4.38c0-2.22-1.22-4.29-3.92-4.29-2.86,0-4.4,2.08-4.58,4.75s1.19,4.74,4,4.74C625.93,223.5,627.44,220.94,627.44,218.3Z" transform="translate(-0.87 -1.07)"/><path class="cls-1" d="M26.1,1.07S76.76,93.44,77,104.15C77.27,113.07,50.65,177,50.65,177s63.47-65.33,63-71.93C112.33,88.79,26.1,1.07,26.1,1.07Z" transform="translate(-0.87 -1.07)"/><path class="cls-1" d="M50.65,282.37S31.06,185.43,30.77,174.58c-.24-9,26.75-73.8,26.75-73.8S.35,170.29.87,177C2.16,193.46,50.65,282.37,50.65,282.37Z" transform="translate(-0.87 -1.07)"/></svg>