<svg id="Layer_1" data-name="Layer 1" xmlns="http://www.w3.org/2000/svg" viewBox="0 0 320.35 140.93"><defs><style>.cls-1{fill:#0b6a9e;}.cls-2{fill:#2d2d2d;}</style></defs><title>nznog</title><path class="cls-1" d="M83.12,91.45l3-41.95H98c10.36,18,14.46,24.65,16.75,29.67h.12c-.09-4.4.52-12.41,1-19.31l.74-10.36h9.2l-3,42H111.68c-3.45-6.26-15.17-27.28-17.29-32.06h-.12c0,5.18-.5,11.3-1,18.76l-.93,13.3Z" transform="translate(0.01 0)"/><path class="cls-1" d="M131.4,84.12l25.81-26.71H133.37l.57-7.91h36.51l-.56,8-26.1,26.08H168l-.58,7.92H130.86Z" transform="translate(0.01 0)"/><path class="cls-2" d="M176.14,91.45l3-41.95H191c10.35,18,14.46,24.65,16.75,29.67h.12c-.09-4.4.52-12.41,1-19.31l.73-10.36h9.21l-3,42H204.71c-3.45-6.26-15.17-27.28-17.29-32.06h-.12c0,5.18-.5,11.3-1,18.76l-.93,13.3Z" transform="translate(0.01 0)"/><path class="cls-2" d="M270.86,69.25c0,12.15-7.92,23.09-23.74,23.09-13.6,0-21.36-9-21.36-20.81S234.1,48.6,249.32,48.6C263.13,48.6,270.86,58,270.86,69.25Zm-34.49,2c0,7.73,3.81,13.25,11.5,13.25,8.82,0,12.41-7.79,12.41-15.26,0-6.87-3.31-12.81-11.45-12.81C240.32,56.44,236.37,63.87,236.37,71.26Z" transform="translate(0.01 0)"/><path class="cls-2" d="M318.19,91.45l-7.83-.06.32-4.22c-2.64,3.09-6.2,5.17-13.93,5.17-13.09,0-19.93-9.1-19.93-20.57,0-12.54,8.51-23.17,23.75-23.17,13.13,0,18.8,7.1,19.77,13.43H310.15c-.69-2.25-3-5.79-9.86-5.79-8.53,0-12.88,6.61-12.88,15,0,8,3.66,13.42,11.6,13.42,7.62,0,10.46-4.38,10.74-8.87l0-.53H299.45l.59-7.79h19.9Z" transform="translate(0.01 0)"/><path class="cls-2" d="M84.09,112.05l.59-8.46H85.8c1.58,2.37,4.39,6.41,4.85,7.3h0c0-1.17.11-2.44.21-3.8l.24-3.5H92l-.6,8.46H90.37c-1.24-1.82-4.33-6.5-4.9-7.48h0c0,1.11-.11,2.31-.21,3.81L85,112.05Z" transform="translate(0.01 0)"/><path class="cls-2" d="M94.16,109.26s0,.06,0,.09a2,2,0,0,0,2.09,2.12,2,2,0,0,0,1.94-1.07h.89a2.88,2.88,0,0,1-2.91,1.82,2.77,2.77,0,0,1-2.89-3,3.12,3.12,0,0,1,3.15-3.32,2.69,2.69,0,0,1,2.85,2.91,3.61,3.61,0,0,1,0,.44Zm4.2-.69v-.08a1.81,1.81,0,0,0-2-1.85,2.08,2.08,0,0,0-2.16,1.93Z" transform="translate(0.01 0)"/><path class="cls-2" d="M101.17,106.08c.89,3.35,1.13,4.48,1.24,5.09h0c.21-.59.52-1.36,2.11-5.09h.85c1,3.55,1.3,4.54,1.38,5h0c.19-.58.71-1.91,2-5h.89l-2.53,6h-.89c-.58-2-1.23-4.28-1.38-4.94h0c-.2.55-1,2.43-2.06,4.94h-.94l-1.59-6Z" transform="translate(0.01 0)"/><path class="cls-2" d="M113.56,111.36l6.43-7h-5.75l.06-.81h7l0,.72-6.4,6.93h6.26l-.21.81h-7.4Z" transform="translate(0.01 0)"/><path class="cls-2" d="M123,109.26a.25.25,0,0,0,0,.09,2.16,2.16,0,0,0,4,1.05h.9a2.91,2.91,0,0,1-2.92,1.82,2.78,2.78,0,0,1-2.89-3,3.12,3.12,0,0,1,3.15-3.32,2.69,2.69,0,0,1,2.86,2.91,2.39,2.39,0,0,1,0,.44Zm4.19-.69v-.08a1.8,1.8,0,0,0-2-1.85,2.09,2.09,0,0,0-2.16,1.93Z" transform="translate(0.01 0)"/><path class="cls-2" d="M134.65,110.5a13.68,13.68,0,0,0-.08,1.55h-.86a6.05,6.05,0,0,1,0-1,2.37,2.37,0,0,1-2.35,1.12c-1.65,0-2.23-1-2.23-1.85,0-1.63,1.65-2,3.12-2,.7,0,1.34,0,1.64,0v-.3c.05-.72-.21-1.42-1.62-1.42-1.21,0-1.58.5-1.74,1.14h-.89c.12-.84.7-1.86,2.66-1.86s2.55,1,2.46,2.09Zm-.78-1.47c-.39,0-.84,0-1.6,0-1.36,0-2.22.32-2.22,1.26,0,.65.48,1.16,1.49,1.16a2.08,2.08,0,0,0,2.31-2.17Z" transform="translate(0.01 0)"/><path class="cls-2" d="M136.52,112.05l.63-9H138l-.63,9Z" transform="translate(0.01 0)"/><path class="cls-2" d="M144.57,110.5c-.06.66-.08,1.36-.08,1.55h-.85a6,6,0,0,1,0-1,2.36,2.36,0,0,1-2.34,1.12c-1.65,0-2.23-1-2.23-1.85,0-1.63,1.65-2,3.11-2,.7,0,1.34,0,1.64,0l0-.3c.05-.72-.22-1.42-1.63-1.42-1.2,0-1.58.5-1.74,1.14h-.88c.12-.84.7-1.86,2.65-1.86s2.55,1,2.47,2.09Zm-.78-1.47c-.39,0-.83,0-1.59,0-1.37,0-2.22.32-2.22,1.26,0,.65.48,1.16,1.49,1.16a2.09,2.09,0,0,0,2.31-2.17Z" transform="translate(0.01 0)"/><path class="cls-2" d="M146.79,107.58c0-.5.07-1.06.09-1.5h.86c0,.27,0,.76-.05,1.2a2.36,2.36,0,0,1,2.26-1.37c1.36,0,2.28.8,2.14,2.56l-.25,3.58H151l.25-3.47c.07-1.07-.28-1.89-1.48-1.89s-2.08,1.09-2.19,2.57l-.19,2.79h-.88Z" transform="translate(0.01 0)"/><path class="cls-2" d="M160,103.1l-.52,7.21c0,.58-.08,1.16-.11,1.74h-.84c0-.25,0-.61,0-1a2.31,2.31,0,0,1-2.25,1.13,2.72,2.72,0,0,1-2.76-3,3.2,3.2,0,0,1,3.15-3.34,2.11,2.11,0,0,1,2.14,1.07l.29-3.88Zm-5.54,6.12a2,2,0,0,0,2,2.23,2.17,2.17,0,0,0,2.27-2.35c.12-1.5-.43-2.42-2-2.42A2.33,2.33,0,0,0,154.48,109.22Z" transform="translate(0.01 0)"/><path class="cls-2" d="M165.19,112.05l.6-8.46h1.11c1.58,2.37,4.4,6.41,4.86,7.3h0c0-1.17.11-2.44.21-3.8l.25-3.5h.89l-.6,8.46h-1.06c-1.23-1.82-4.33-6.5-4.89-7.48h0c0,1.11-.1,2.31-.21,3.81l-.26,3.67Z" transform="translate(0.01 0)"/><path class="cls-2" d="M175.26,109.26v.09a2,2,0,0,0,2.08,2.12,2,2,0,0,0,1.94-1.07h.89a2.88,2.88,0,0,1-2.91,1.82,2.77,2.77,0,0,1-2.89-3,3.12,3.12,0,0,1,3.15-3.32,2.68,2.68,0,0,1,2.85,2.91,2.32,2.32,0,0,1,0,.44Zm4.2-.69v-.08a1.81,1.81,0,0,0-2-1.85,2.08,2.08,0,0,0-2.16,1.93Z" transform="translate(0.01 0)"/><path class="cls-2" d="M181.22,106.08h1.2l.14-2h.89l-.14,2h1.58l0,.73h-1.59l-.24,3.5c-.06.74.11,1.06.78,1.06a2.83,2.83,0,0,0,.67-.06l-.05.69a2.69,2.69,0,0,1-.88.11c-1.15,0-1.49-.56-1.42-1.71l.26-3.59h-1.2Z" transform="translate(0.01 0)"/><path class="cls-2" d="M186.59,106.08c.89,3.35,1.13,4.48,1.24,5.09h0c.21-.59.52-1.36,2.11-5.09h.85c1,3.55,1.3,4.54,1.38,5h0c.19-.58.71-1.91,2-5h.89l-2.53,6h-.89c-.58-2-1.23-4.28-1.38-4.94h0c-.2.55-1,2.43-2.06,4.94h-.94l-1.59-6Z" transform="translate(0.01 0)"/><path class="cls-2" d="M201.87,108.94a3.09,3.09,0,0,1-3.22,3.28,2.86,2.86,0,0,1-3-3,3.15,3.15,0,0,1,3.23-3.29A2.88,2.88,0,0,1,201.87,108.94Zm-5.27.25a2.12,2.12,0,0,0,2.1,2.27A2.26,2.26,0,0,0,201,109a2.1,2.1,0,0,0-2.12-2.29A2.28,2.28,0,0,0,196.6,109.19Z" transform="translate(0.01 0)"/><path class="cls-2" d="M203.48,107.75c0-.56.09-1.14.11-1.67h.85c0,.16,0,.8-.06,1.4a2.59,2.59,0,0,1,2.45-1.55l-.06.88a2.52,2.52,0,0,0-2.53,2.67l-.17,2.57h-.89Z" transform="translate(0.01 0)"/><path class="cls-2" d="M208.89,109c.63-.53,2.64-2.11,3.66-2.92h1.2c-.37.25-2.73,2.13-3,2.34l2.84,3.63h-1.11l-2.41-3.13-1.22.9-.16,2.23h-.88l.63-9h.88Z" transform="translate(0.01 0)"/><path class="cls-2" d="M226.75,107.61a4.35,4.35,0,0,1-4.51,4.62,4,4,0,0,1-4.18-4.23,4.44,4.44,0,0,1,4.54-4.58A4,4,0,0,1,226.75,107.61Zm-7.69.35a3.19,3.19,0,0,0,3.23,3.46c2.24,0,3.47-1.71,3.47-3.79a3.17,3.17,0,0,0-3.25-3.4A3.5,3.5,0,0,0,219.06,108Z" transform="translate(0.01 0)"/><path class="cls-2" d="M229.1,111l-.26,3.66H228l.49-7c.06-.61.09-1.12.1-1.57h.86c0,.17,0,.59,0,1.11a2.61,2.61,0,0,1,2.4-1.28,2.65,2.65,0,0,1,2.62,2.89,3.19,3.19,0,0,1-3.09,3.42A2.22,2.22,0,0,1,229.1,111Zm4.38-2.19a2,2,0,0,0-2-2.15,2.27,2.27,0,0,0-2.29,2.38,2,2,0,0,0,2,2.37A2.35,2.35,0,0,0,233.48,108.84Z" transform="translate(0.01 0)"/><path class="cls-2" d="M236.34,109.26a.25.25,0,0,0,0,.09,2.16,2.16,0,0,0,4,1.05h.9a2.88,2.88,0,0,1-2.91,1.82,2.78,2.78,0,0,1-2.9-3,3.12,3.12,0,0,1,3.15-3.32,2.69,2.69,0,0,1,2.86,2.91,3.61,3.61,0,0,1,0,.44Zm4.19-.69a.28.28,0,0,0,0-.08,1.81,1.81,0,0,0-2-1.85,2.09,2.09,0,0,0-2.17,1.93Z" transform="translate(0.01 0)"/><path class="cls-2" d="M243.07,107.75c0-.56.08-1.14.11-1.67H244c0,.16,0,.8-.07,1.4a2.62,2.62,0,0,1,2.46-1.55l-.07.88a2.52,2.52,0,0,0-2.52,2.67l-.18,2.57h-.88Z" transform="translate(0.01 0)"/><path class="cls-2" d="M252.25,110.5c-.06.66-.08,1.36-.08,1.55h-.85a6,6,0,0,1,0-1,2.36,2.36,0,0,1-2.34,1.12c-1.65,0-2.23-1-2.23-1.85,0-1.63,1.65-2,3.12-2,.69,0,1.34,0,1.63,0l0-.3c.05-.72-.22-1.42-1.63-1.42-1.2,0-1.58.5-1.73,1.14h-.89c.12-.84.7-1.86,2.65-1.86s2.55,1,2.47,2.09Zm-.78-1.47c-.39,0-.83,0-1.59,0-1.37,0-2.22.32-2.22,1.26,0,.65.48,1.16,1.49,1.16a2.09,2.09,0,0,0,2.31-2.17Z" transform="translate(0.01 0)"/><path class="cls-2" d="M253.5,106.08h1.2l.15-2h.88l-.14,2h1.58l-.05.73h-1.59l-.24,3.5c-.06.74.11,1.06.79,1.06a2.75,2.75,0,0,0,.66-.06l-.05.69a2.69,2.69,0,0,1-.88.11c-1.15,0-1.49-.56-1.41-1.71l.25-3.59h-1.2Z" transform="translate(0.01 0)"/><path class="cls-2" d="M263.89,108.94a3.09,3.09,0,0,1-3.22,3.28,2.86,2.86,0,0,1-3-3,3.14,3.14,0,0,1,3.22-3.29A2.89,2.89,0,0,1,263.89,108.94Zm-5.28.25a2.12,2.12,0,0,0,2.11,2.27A2.26,2.26,0,0,0,263,109a2.1,2.1,0,0,0-2.12-2.29A2.29,2.29,0,0,0,258.61,109.19Z" transform="translate(0.01 0)"/><path class="cls-2" d="M265.49,107.75c.05-.56.09-1.14.11-1.67h.85c0,.16,0,.8-.06,1.4a2.6,2.6,0,0,1,2.46-1.55l-.07.88a2.52,2.52,0,0,0-2.52,2.67l-.18,2.57h-.88Z" transform="translate(0.01 0)"/><path class="cls-2" d="M270.25,110.22c.21.87.93,1.28,2,1.28s1.69-.43,1.69-1.07-.33-.92-1.83-1.14c-1.92-.29-2.34-.91-2.34-1.66s.7-1.72,2.43-1.72c2.1,0,2.56,1.17,2.6,1.8h-.89c-.09-.43-.37-1.09-1.77-1.09-1.12,0-1.47.48-1.47.93s.35.77,1.69,1c2,.31,2.49.92,2.49,1.82,0,1.07-.86,1.86-2.67,1.86s-2.68-.73-2.84-2Z" transform="translate(0.01 0)"/><path class="cls-2" d="M287.7,112.05H287a9,9,0,0,1,0-1.37,3.22,3.22,0,0,1-3.15,1.55,3.81,3.81,0,0,1-4-4.17,4.42,4.42,0,0,1,4.57-4.64c2.38,0,3.46,1.2,3.74,2.54h-1a2.62,2.62,0,0,0-2.81-1.74,3.48,3.48,0,0,0-3.54,3.78c0,2,1.1,3.42,3.16,3.42a2.78,2.78,0,0,0,3.08-2.86l0-.25h-2.94l.06-.82H288Z" transform="translate(0.01 0)"/><path class="cls-2" d="M290,107.75c0-.56.09-1.14.11-1.67h.85c0,.16,0,.8-.06,1.4a2.6,2.6,0,0,1,2.46-1.55l-.07.88a2.52,2.52,0,0,0-2.52,2.67l-.18,2.57h-.88Z" transform="translate(0.01 0)"/><path class="cls-2" d="M300,108.94a3.09,3.09,0,0,1-3.22,3.28,2.86,2.86,0,0,1-3-3,3.15,3.15,0,0,1,3.22-3.29A2.88,2.88,0,0,1,300,108.94Zm-5.27.25a2.12,2.12,0,0,0,2.1,2.27,2.26,2.26,0,0,0,2.26-2.5,2.1,2.1,0,0,0-2.12-2.29A2.28,2.28,0,0,0,294.75,109.19Z" transform="translate(0.01 0)"/><path class="cls-2" d="M306.69,110.35c0,.57-.07,1.14-.09,1.7h-.86c0-.17,0-.67,0-1.11a2.14,2.14,0,0,1-2.23,1.28c-1.29,0-2.21-.72-2.09-2.45l.26-3.69h.88l-.24,3.51c-.07.94.2,1.84,1.38,1.84,1.39,0,2.07-.85,2.21-2.72l.18-2.63H307Z" transform="translate(0.01 0)"/><path class="cls-2" d="M309.54,111l-.26,3.66h-.89l.5-7c.06-.61.09-1.12.1-1.57h.85a8.2,8.2,0,0,1,0,1.11,2.6,2.6,0,0,1,2.39-1.28,2.65,2.65,0,0,1,2.63,2.89,3.19,3.19,0,0,1-3.09,3.42A2.2,2.2,0,0,1,309.54,111Zm4.37-2.19a1.94,1.94,0,0,0-2-2.15,2.26,2.26,0,0,0-2.29,2.38,2,2,0,0,0,2,2.37A2.35,2.35,0,0,0,313.91,108.84Z" transform="translate(0.01 0)"/><path class="cls-1" d="M12.63,0S38,46.28,38.15,51.65c.12,4.47-13.22,36.49-13.22,36.49s31.8-32.73,31.54-36C55.84,44,12.63,0,12.63,0Z" transform="translate(0.01 0)"/><path class="cls-1" d="M24.93,140.94s-9.82-48.57-10-54c-.12-4.54,13.4-37,13.4-37S-.27,84.79,0,88.14C.63,96.4,24.93,140.94,24.93,140.94Z" transform="translate(0.01 0)"/></svg>
